<svg id="Capa_1" enable-background="new 0 0 512 512" height="512" viewBox="0 0 512 512" width="512" xmlns="http://www.w3.org/2000/svg"><path d="m294.025 79.062h-76.051l-6.648-71.976c-.349-3.786 2.222-7.086 5.521-7.086h78.307c3.299 0 5.87 3.3 5.52 7.086z" fill="#cc814a"/><path d="m295.153 0h-30.905c3.299 0 5.87 3.3 5.52 7.086l-6.648 71.976h30.905l6.648-71.976c.35-3.786-2.221-7.086-5.52-7.086z" fill="#b5672d"/><path d="m417 351.292c0 88.279-71.298 159.927-159.554 160.702-88.845.78-162.447-72.016-162.446-160.704.001-57.11 29.845-107.265 74.816-135.767 24.739-15.679 39.742-42.881 39.742-72.132v-33.677h92.885v33.675c0 29.349 15.178 56.507 39.973 72.281 44.842 28.527 74.584 78.609 74.584 135.622z" fill="#b5fcff"/><path d="m342.415 215.67c-24.794-15.773-39.973-42.932-39.973-72.281v-33.675h-30.962v33.675c0 29.349 15.178 56.507 39.973 72.281 44.843 28.527 74.585 78.61 74.585 135.622 0 83.526-63.832 152.152-145.461 159.957 5.551.539 11.178.795 16.869.745 88.256-.776 159.554-72.424 159.554-160.702 0-57.013-29.742-107.095-74.585-135.622z" fill="#71f6fc"/><path d="m371.244 362.782c-49.099-19.865-70.199.285-98.242 16.278-48.881 27.876-78.856 22.946-108.35 3.264-18.8-12.546-39.042-30.529-69.379-21.756 4.816 84.439 74.93 151.432 160.727 151.432 78.179 0 143.333-55.625 157.934-129.385-14.732-5.426-28.068-13.917-42.69-19.833z" fill="#ba68c8"/><path d="m413.935 382.615-.001-.001c-9.991-3.679-19.34-8.768-28.884-13.508-8.319 75.288-68.729 134.9-144.472 142.142 5.551.539 11.178.795 16.869.745 77.538-.681 141.979-56.07 156.488-129.378z" fill="#ab47bc"/><path d="m303.388 109.714h-94.777c-11.379 0-20.604-9.225-20.604-20.604 0-11.379 9.225-20.604 20.604-20.604h94.777c11.379 0 20.604 9.225 20.604 20.604 0 11.38-9.225 20.604-20.604 20.604z" fill="#71f6fc"/><path d="m303.388 68.507h-30.905c11.379 0 20.604 9.225 20.604 20.604 0 11.379-9.225 20.604-20.604 20.604h30.905c11.379 0 20.604-9.225 20.604-20.604 0-11.379-9.225-20.604-20.604-20.604z" fill="#58e7ed"/><g fill="#ab47bc"><circle cx="212.589" cy="316.237" r="24.581"/><circle cx="274.497" cy="243.741" r="20.234"/></g></svg>