<?xml version="1.0" standalone="no"?><!DOCTYPE svg PUBLIC "-//W3C//DTD SVG 1.1//EN" "http://www.w3.org/Graphics/SVG/1.1/DTD/svg11.dtd"><svg class="icon" height="512" viewBox="0 0 1024 1024" version="1.1" xmlns="http://www.w3.org/2000/svg"><path fill="#C4C2D7" d="M874.666667 469.333333 810.666667 469.333333 810.666667 298.666667C810.666667 251.306667 772.266667 213.333333 725.333333 213.333333L554.666667 213.333333 554.666667 149.333333C554.666667 90.453333 506.88 42.666667 448 42.666667 389.12 42.666667 341.333333 90.453333 341.333333 149.333333L341.333333 213.333333 170.666667 213.333333C123.733333 213.333333 85.333333 251.733333 85.333333 298.666667L85.333333 460.8 149.333333 460.8C213.333333 460.8 264.533333 512 264.533333 576 264.533333 640 213.333333 691.2 149.333333 691.2L85.333333 691.2 85.333333 853.333333C85.333333 900.266667 123.733333 938.666667 170.666667 938.666667L332.8 938.666667 332.8 874.666667C332.8 810.666667 384 759.466667 448 759.466667 512 759.466667 563.2 810.666667 563.2 874.666667L563.2 938.666667 725.333333 938.666667C772.266667 938.666667 810.666667 900.266667 810.666667 853.333333L810.666667 682.666667 874.666667 682.666667C933.546667 682.666667 981.333333 634.88 981.333333 576 981.333333 517.12 933.546667 469.333333 874.666667 469.333333Z" /></svg>